/* XPM */
static char * collectible_xpm[] = {
"16 16 12 1",
" 	c #29B7E8",
".	c #33D6F9",
"+	c #683446",
"@	c #C08164",
"#	c #C45B5B",
"$	c #382C2D",
"%	c #933B3B",
"&	c #896459",
"*	c #3C5956",
"=	c #75F5FD",
"-	c #A93B3B",
";	c #803636",
" ...+++...     .",
" @@+###++@@@@@@ ",
" $+#%%%##+$$$$$ ",
".&+%###%%#+&&&&.",
".&&+%%%##+&&&&&.",
".@@@++%%%+@@@@@.",
".$$$+*****+$$$$=",
".&&+**####-+&&&.",
"=&&+*-*####-+&&=",
"=@+*%-*-##--%+@=",
".$+*%%*------+$.",
"=+%%%%%*-----%+=",
".+%%%%%%%---%%+.",
".+%%%%%%%%%%%%+.",
".$+%%%%%%%%%%;+ ",
"   +%%%%%%%%%+. "};
