/* XPM */
static char * collectible_xpm[] = {
"16 16 7 1",
" 	c None",
".	c #683446",
"+	c #C45B5B",
"@	c #933B3B",
"#	c #3C5956",
"$	c #A93B3B",
"%	c #803636",
"    ...         ",
"   .+++..       ",
"  .+@@@++.      ",
"  .@+++@@+.     ",
"   .@@@++.      ",
"    ..@@@.      ",
"    .#####.     ",
"   .##++++$.    ",
"   .#$#++++$.   ",
"  .#@$#$++$$@.  ",
"  .#@@#$$$$$$.  ",
" .@@@@@#$$$$$@. ",
" .@@@@@@@$$$@@. ",
" .@@@@@@@@@@@@. ",
"  .@@@@@@@@@@%. ",
"   .@@@@@@@@@.  "};
