/* XPM */
static char * collectible1_xpm[] = {
"16 16 103 2",
"  	c None",
". 	c #743948",
"+ 	c #713848",
"@ 	c #A64D52",
"# 	c #BC5757",
"$ 	c #96464F",
"% 	c #733848",
"& 	c #643345",
"* 	c #A34C52",
"= 	c #AA4B4B",
"- 	c #9C4141",
"; 	c #B04F50",
"> 	c #BC5758",
", 	c #95464F",
"' 	c #663446",
") 	c #863A41",
"! 	c #B04E4F",
"~ 	c #BE5757",
"{ 	c #BD5757",
"] 	c #AA4A4A",
"^ 	c #9B4141",
"/ 	c #B04F51",
"( 	c #91454E",
"_ 	c #6B3445",
": 	c #883B42",
"< 	c #963E3F",
"[ 	c #963E3E",
"} 	c #B04F4F",
"| 	c #94454E",
"1 	c #6C3445",
"2 	c #6A3746",
"3 	c #823C41",
"4 	c #924040",
"5 	c #944241",
"6 	c #793C45",
"7 	c #663747",
"8 	c #514D50",
"9 	c #535755",
"0 	c #5D5755",
"a 	c #5C5755",
"b 	c #595755",
"c 	c #67444C",
"d 	c #693346",
"e 	c #524C50",
"f 	c #445755",
"g 	c #995958",
"h 	c #BC5B5B",
"i 	c #BD5B5B",
"j 	c #B14A4B",
"k 	c #893842",
"l 	c #534D50",
"m 	c #8B4947",
"n 	c #79504E",
"o 	c #A35958",
"p 	c #C45A5A",
"q 	c #C45B5B",
"r 	c #C25959",
"s 	c #B04747",
"t 	c #863641",
"u 	c #504C50",
"v 	c #774948",
"w 	c #A03B3B",
"x 	c #73504D",
"y 	c #8D4A48",
"z 	c #BB5050",
"A 	c #C35A5A",
"B 	c #B44A4A",
"C 	c #AA3C3C",
"D 	c #9C3B3B",
"E 	c #7A3742",
"F 	c #6D3345",
"G 	c #574C4F",
"H 	c #7D4846",
"I 	c #963A3A",
"J 	c #6C4E4C",
"K 	c #894948",
"L 	c #A93E3E",
"M 	c #AC3E3E",
"N 	c #A93B3B",
"O 	c #863742",
"P 	c #673446",
"Q 	c #833840",
"R 	c #8F3D3D",
"S 	c #913C3C",
"T 	c #933B3B",
"U 	c #913D3C",
"V 	c #6E4E4C",
"W 	c #8F4645",
"X 	c #A93A3A",
"Y 	c #A83B3B",
"Z 	c #9A3B3B",
"` 	c #793742",
" .	c #843840",
"..	c #943B3B",
"+.	c #903D3D",
"@.	c #923C3C",
"#.	c #A13B3B",
"$.	c #923B3B",
"%.	c #953B3B",
"&.	c #883839",
"*.	c #723541",
"=.	c #86393F",
"-.	c #7B3741",
"        . . .                   ",
"      + @ # # $ %               ",
"    & * = - - ; > ,             ",
"    ' ) ! ~ { ] ^ / (           ",
"      _ : < [ } ~ |             ",
"        1 2 3 4 5 6             ",
"        7 8 9 0 a b c           ",
"      d e f g h i i j k         ",
"      7 l m n o p q r s t       ",
"    d u v w x y z A B C D E     ",
"    F G H I J K L M C N N O     ",
"  P Q R S T U V W X N N Y Z `   ",
"  P  ...T T T +.@.#.Y Y D ..E   ",
"  P Q $.T T T T T ..%.%...T `   ",
"    _  .$.T T T T T T T T &.*.  ",
"      _ =...T T T T T T ..-.    "};
