/* XPM */
static char * exit_closed1_xpm[] = {
"16 16 9 1",
" 	c #29B7E8",
".	c #33D6F9",
"+	c #A0E2A7",
"@	c #43A78E",
"#	c #52B090",
"$	c #77CF9A",
"%	c #6DC899",
"&	c #A6E8A8",
"*	c #75F5FD",
" .........     .",
"  ..........    ",
"  ...+++++++..  ",
"...++@@@@@@@++..",
"..+@#$$$%%%%@@+.",
".&@%%%%%%%%%$$#.",
".+%%%$$$$$$%...*",
".+$%%%%%%%%..*..",
"*+%%%%%%%%%....*",
"*+%%%%%%%%%%...*",
".@&%%%%%%%%%%$+.",
"*.@++$$$$$$%++@*",
"...@@+++++++@@..",
"....*#######....",
".  ............ ",
"   ............ "};
