/* XPM */
static char * exit_open_xpm[] = {
"16 16 6 1",
" 	c #33D6F9",
".	c #B0E588",
"+	c #46985A",
"@	c #77C46F",
"#	c #75F5FD",
"$	c #C6FEF4",
"                ",
"                ",
"     .......    ",
"   ..+++++++..  ",
"  .++@@@@@@@++. ",
" .+@@@@@@@@@@@+#",
" .@@@@@@@@@@    ",
" .@@@@@@@@@     ",
" .@@@@@@@@@     ",
" .@@@@@@@@@@    ",
" +.@@@@@@@@@@@. ",
"  +..@@@@@@@..+ ",
"   ++.......++  ",
"     +++++++    ",
"     $ ##       ",
"                "};
