/* XPM */
static char * exit_close_xpm[] = {
"16 16 3 1",
" 	c #29B7E8",
".	c #33D6F9",
"+	c #75F5FD",
" .........     .",
"  ..........    ",
"  ............  ",
"................",
"....++++........",
".+..........+++.",
".....++++++....+",
"..+..........+..",
"+..............+",
"+..............+",
"..+..........+..",
"+....++++++....+",
"................",
"....++++++++....",
".  ............ ",
"   ............ "};
