/* XPM */
static char * floor_xpm[] = {
"16 16 6 1",
" 	c #29B7E8",
".	c #33D6F9",
"+	c #C08164",
"@	c #382C2D",
"#	c #896459",
"$	c #75F5FD",
" .........     .",
" ++++++++++++++ ",
" @@@@@@@@@@@@@@ ",
".##############.",
".##############.",
".++++++++++++++.",
".@@@@@@@@@@@@@@$",
".##############.",
"$##############$",
"$++++++++++++++$",
".@@@@@@@@@@@@@@.",
"$##############$",
".##############.",
".++++++++++++++.",
".@@@@@@@@@@@@@@ ",
"   ............ "};
