/* XPM */
static char * player_xpm[] = {
"16 15 7 1",
" 	c None",
".	c #66844E",
"+	c #77C46F",
"@	c #5E7B5C",
"#	c #422F4F",
"$	c #F6CA9F",
"%	c #D3FC7E",
"   ...    ...   ",
"  .+++....+++.  ",
" @++++++++++++@ ",
" @++#++++++#++@ ",
" $$++++++++++$$ ",
"$$$$++@++@++$$$$",
"$$$$+++@@+++$$$$",
"@$$++++++++++$$@",
"@++++++++++++++@",
"@+@++.%%%%.++@+@",
"@++@++.%%.++@++@",
"@+++@@%%%%@@+++@",
" @++%%%%%%%%++@ ",
"  @++%%%%%%++@  ",
"   @++    ++@   "};
