/* XPM */
static char * player_xpm[] = {
"16 16 10 1",
" 	c #29B7E8",
".	c #33D6F9",
"+	c #C08164",
"@	c #66844E",
"#	c #382C2D",
"$	c #77C46F",
"%	c #5E7B5C",
"&	c #422F4F",
"*	c #F6CA9F",
"=	c #D3FC7E",
" .........     .",
" ++@@@++++@@@++ ",
" #@$$$@@@@$$$@# ",
".%$$$$$$$$$$$$%.",
".%$$&$$$$$$&$$%.",
".**$$$$$$$$$$**.",
"****$$%$$%$$****",
"****$$$%%$$$****",
"%**$$$$$$$$$$**%",
"%$$$$$$$$$$$$$$%",
"%$%$$@====@$$%$%",
"%$$%$$@==@$$%$$%",
"%$$$%%====%%$$$%",
".%$$========$$%.",
".#%$$======$$%# ",
"   %$$....$$%.. "};
